<!--?xml version="1.0" encoding="utf-8"?--><svg xmlns="http://www.w3.org/2000/svg" version="1.1" baseProfile="tiny"
    width="100%" height="100%" viewBox="0 0 800 600">

    <g stroke="#000000" stroke-width=".98" fill="#FFFFFF">
        <path
            d="m339.05 405.08l-5.92-.22.11 2.82-4.81-3.36-14.15 1.43.91 1.96-2.16.28 6.08.85-1.69 1.68 2.55-1.96 2.19 1.4-.72 5.06-7.84-.86-4.23 5.31-11.35.26-1.26 2.8 3.1 1.95-13.57.63.08 3.88-7.38 4.24-4.37-1.01 3.01-1.72-.92-2.74 3.93.2 1.7-2.8-13.1-.81-3.59-4.32 1.21-3.64-7.38 1.05 1.88 4.67-2.55 2.02-12.31-4.59-.77 2.53 3.69 6-1.66 1.72 4.77.67-3.31 3.73 2.58-.09-.33 2.51-3.35 2.08 3.1 2.39-7.85 5.06-1.93 10.22-5.07 7.23-7.42 3.57-8.36 11.75-8.85 3.47-12.52 12.35.01 6.04-5.43 8.7.89 5.22-3.89 2.1-2.1 6.14-6.69 7.55-.71 6.45 4.06 4.75-4.88 7.02-2.5 16.73 6.29 6 4.76-.93.7 1.69-3.59.65 2.81 1.91 11.46-4.36 5.3.08 4.04 3.33 10.9-1 8.86-4.8 6.52.93 2.93 2.96 8.17.26 4.42-1.04-2.84-1.52 4.75-2.49 4.83 2.86.93-3.55 2.43-.31-2.08-1.95-9.83 2.54-5.1-2.72 5.17-6.87 7.84-1.44-.57-1.92 3.88.79.75 2.88 2.01-3.01 2.58 3.24 3.04-.24-.19 5.25 5.32 1.28-2.05-3.02 2.81-1.66 4.99 2.58-1.53 1.81 2.88 2.16 8.68-3.02-4.93-2.78 5.21.13-1.4-1.35 13.07 7.15 4.32-1.11-3.34-5.27-10.08-6.51 20.54 11.12 13.95 1.85 5.17 5 13.58-1.59 7.38-5.42 9.12 1.91 4.52-2.83 3.71 3.99.84-2.86 3.36-.06-.85-6.52-3.76-1.96 5-2.31-4.2-3.93 2.09-.87.39-4.25-2.11-1.68 4.15-4.57.37-6.23-4.27-6.18-1.37-7.61-7.32-7.47 5.46-3.76-.45-2.24 10.62-.22 5.07-2.62-.86-1.41 6.44-.78-1.26-6.17 2.14-.26-5.16-4.19 1.3-3.07 5.17 1.12.85 2.81 4.28-3.32 2.56.31-2.15 2.5 6.4-1.9-6.36-6.5 3-2.77-1.69-2.82 2.15-3.34-2.12-1.14 2.14-2.22-7.81-6.94-7.85-.75-.06-3.89-3.48-.52 3.84-3.38-10.05-4.34.78-3.91-1.74-.26 3.31-1.84-.84-3.48-3.05-.8 1.71-.85-1.36-2.22 4.28-1.16-5.3-3.86 2.01-4.76-3.02.03-1.39-2.79-3.72 4.79-6.04.05-.64-5.87-2.15.02 1.22-1.98-4.2 3.13-3.05-.82 4.16-3.97-3.59-3.62.28-3.66-3.11-1.95-4.63 3.13-1.43-3.09-3.33 3.12-2.6-.55.98-6.51z"
            id="DE-BW" class="area" title="Baden-Württemberg"></path>
        <path d="m267.67 561.23l-3.57 1.54 4.63-.1-1.06-1.44z" id="PATH_4" class="area" title=""></path>
        <path
            d="m375.68 346.46l-4.47.59-8.8 9.15-5.76 1.74-10.34-1.35-.17 7.98-6.91 3.16-1.22 1.71 1.79 1.12-12.14-.75.29 5.1 2.16.54-.99 5.68-7.59.92-3.18-3.93-10.56-1.29-5.18 4.58.27-2.25-2.63-.51-7.92.99-2.94 4.52 4.02.76 1.41 3.61-2.64.32 1.09 10.87 4.38.22.07 3.9 3.05-.31-2.13 2.81 3.51 1.09-5.17 3.95 1.38 3.61-3 3.09 3.98 2.21 8.3-.26 5.96-5.87 7.84.86 1.2-3.65-1.8-2.53-2.55 1.96-1.76-1.4 2.58-.56-6.08-.85 5.55-3.08 9.85-.59 4.81 3.36-.11-2.82 6.31-.63-1.83 6.8 2.2 1.12 4.19-3.13 1.87 3.09 5.06-3.14 5.54 8.96-4.15 4.25 3.05.82 4.2-3.13.25 7.01 2.62 1.09 4.74-.32 3.72-4.79 1.39 2.79 3.02-.03-2.01 4.76 5.3 3.86-4.28 1.16 1.36 2.22-1.71.85 3.05.8.84 3.48-3.31 1.84 1.74.26-.78 3.91 10.05 4.34-3.84 3.38 3.48.52.06 3.89 7.85.75 7.81 6.94-2.14 2.22 2.12 1.14-2.15 3.34 1.69 2.82-3 2.77 6.36 6.5-6.4 1.9 2.15-2.5-2.56-.31-4.28 3.32-.85-2.81-5.17-1.12-1.3 3.07 5.16 4.19-2.14.26 1.26 6.17-6.44.78.86 1.41-5.07 2.62-10.62.22.45 2.24-5.46 3.76 7.32 7.47 1.37 7.61 4.27 6.18-.37 6.23-4.15 4.57 2.11 1.68-.39 4.25-2.09.87 4.2 3.93-5 2.31 3.76 1.96.85 6.52-3.36.06-.84 2.86-3.71-3.99-4.52 2.83-9.12-1.91-6.55 5.13-7.47-.16-3.23 2.95 9.03 2.51 5-4.23.88 3.52 4.58 1.52 7.39-1.5 1.98 4.87 7.08 2.24.31 2.89-1.97.52 2.06 4.3 9.91-2.88-4.29 9.32 11.6-2.48 5.06-5.52 3.3-.25 2.88-4.11-.67-4.11-2.24-.79-.07-6.66 9.78 3.76 2.93-2.86 13.03 4.36 8.42-1.66 2.69 1.67-4.22 2.88 4.82 0 3.86 6.21 20.35-2.93-1.66 3.29 3.77.02 5.13-4.6 6.25.47-2.73-2 3.74-3.13 10.88.11 4.19-6.55 16.71 1.46 12.12-3.24 14.58 1.56-2.64-7.4 6.05-3.12.34 4.83 13.43-1.85 5.31 5.44 5.4-.42 2.12-3.4 13.45.26-.89 2.33 4.21 2.19-3.43 2.63 1.4 1.52 12.88 6.39 3.31.86 3.05-2.21-.44-6.81 4.37-4.12-1.82-3.95-5.03-2.91-7.88-.12 6.81-9.16-18.8-20.09 8.73-6.54 16.85-5.9 14.79-1.79 9.46-5.5 3.33-10.5-1.43-3.67 5.11-2.41 17.95 5.12 5.3-4.69 1.19-3.82-2.93-6.08 3.7-3.78-6.4-7.81-6.07-.65-6.27-6.48-5.93.03-1.04 2.12-5.51-2.39-1.52-6.06-8.17-5.19-8.77-1.84.02-2.26-10.8-7.08-.33-3.1-6.11-3-12.79-.28-1.85-3.66-7.47-2.42-2.15-3.62.99-3.87-4.38-.98-1.76-6.1-2.99-.6.19-4.19-6.37-1.46-3.1-3.65 5.25-2.66.04-3.45 2.19-.23 3.5-6.69-5.46-.98 1.02-3.51-17.66-5.75.39-2.26-4.71-1.49-.01-6.35-8.57-4.53 3.89-2.03-.92-2.35-10.89-2.98.2-3.11-3.39-2.53-8.49 2.58-3.04-2.26-14.71 1.45-5.37 2.27-3.05-4.5-2.68.85-2.19-2.25.95-4.79-6.21-.54-1.81 2.54-5.76.86 2.56 8.44-2.3 7.6-8.28-1.66 1.29-3.09-3.49-2.8-5.23 1.71-3.5-1.68.02 1.69-4.39-3.64-8.26.02-8.27 2.26-.38 2.82 10.47 5.6-9.16.05-.87 3.68-8.41-1.95-.5-7.93-8.47-1.69-2.7-3.67-4.89.57.87-2.26-5.38-5.37-7.57-1.41-2.25-3.11-5.34.28z"
            id="DE-BY" class="area" title="Bayern"></path>
        <path
            d="m605.11 191.56l-3 5.57 4.11 1.18-6.26 6.66 3.59 2.29 8.4-2.41 13.66 3.29-.35-2.53 3.72-.79.83 1.98 12.33 1.31.79 2.82 8.14-7.45-11.35-2.43 3.42-4.44-11.28-4.66 1.1-3.92-3.57-2.58-1.9 1.1 1.35.86-7.94 2.13-6.36-2.62-1.03 2.51-3.22-.33-1.06 3.36-4.12-.9z"
            id="DE-BE" class="area" title="Berlin"></path>
        <path
            d="m659.49 122.86l-4.66-1.06-2.15-3.13-.71 3.35 3.7 1.2-9.07 1.25-6.47 5.49-5.66.76-1.74 6.15-6.64 1.58-2.53 3.89-7.84-2.38-5.37 4.71-3.62-2.59-4.71.77-10.53 6.04-2.77-.88 2.41-1.94-15.92.9-1.84-.87 1.47-1.95-6.53-.37-.4-1.98-16.87.35-3.63-3.99-10.29-1.53-2.27-2.57-4.74 1.36-8.88-2.35-2 5.06-17.02 3.79 2.32 2-15.05-1.27-5.22 2.22.9 3.68-2.87 3.08-10.82-1.22-.02 2.26-9.43.49 5.63 3.71 8.49-1.91 4.67 2.58 8.92.35-.51 2.26 4.22.31.43 2.26 12.12 2.08-1.91 1.96 1.38 1.42 29.76 3.66 1.74 4.8-3.31 1.66-1.04 4.49 2.73 1.99.35 4.5-5.12.23.83 3.94-2.88 3.63 3.26-.53-1.44 1.95 2.3.87 2.84-2.22 7.32 3.45-4.3 4.72 2.29.87-1.48 3.35 1.82 1.15-4.81 6.96 3.63 2.28-6.1 4.14 16.25 11.4 3.26-1.37 5.39 3.99 10.17-2.11 8.59 3.76 4.6-.5.37 2.53 8.26-.17.82 2.53 5.49.08-.55 2.24 8.7-.16-1.9 1.93 4.62 9.88-10.24 5.17 10.65 6.88 1.65 3.95-2.53 5.84 2.29-.24.79 2.53 4.04.91 3.82-4.15 4.47 1.19 1.93-2.21 10.5 6.37 16.6.61 14.58-2.81 3.3 1.87 4.94-5.57-2.32-2.47 4.36.01-1.19-1.23 4.7-3.68 14.27 3.35 17.28-5.43 7.22 1.64 1.49-3.68 4.16-.31-.09-4.8-11.64-12.9 7.23-5.16 4.61-12.74-5.45-3.65 2.29-9.06-9.75-3.67 1.01-1.63-4.2-6.47 7.76-7.78-2.32-2.57 2.91-3.56-13.1-5.86-9.45-7.72-16.68-6.14 2.62-2.98-1.02-6.18 16.95-8.74 1.67-4.53-1.59-3.34 6.19-6.16-2.17-4.85-7.6.99-4.67 4.12-11.99-.24 10.27-8.19.36-4.47-24.47.6-2.87-6.1zm-30.1 62.59l3.57 2.58-1.1 3.92 11.28 4.66-3.42 4.44 10.93 1.58-1.55 3.62-6.17 4.68-.79-2.82-12.33-1.31-.83-1.98-3.72.79.35 2.53-9.53-2.95-12.53 2.07-3.17-1.45 5.84-7.5-4.11-1.18 2.91-3.33-1.79-1.43 6 .09 1.06-3.36 3.22.33 1.03-2.51 6.36 2.62 7.94-2.13-1.35-.86 1.9-1.1z"
            id="DE-BB" class="area" title="Brandenburg"></path>
        <path
            d="m288.66 151.11l-2.9-2.21-6.46 1.54-2.45-2.21-17.86-1.56.34-2.27-8.45-.9 10.53 4.8 7.99 9.71 3.2-1.49 3.39 2.48 3.65-1.49 5.23 2.16 3.6-2.61-1.54-3.09 2.3-.61-3.35-1.92 2.78-.33z"
            id="DE-HB" class="area" title="Bremen"></path>
        <path
            d="m370.96 106.4l.08 2.24-12.56 2.01-6.16 5.06-4.96-3.31-2.76 5.31 3.4.26-.39 3.69 7.39 5.88 4.34-1.45-.93 2.55 6.83-.33 4.36-3.41 9.37 5.01 5.36.25 6.3-3.15-13.39-8.33 5.57-5.89-6.44-4.17 4.21-3.93-9.62 1.71z"
            id="DE-HH" class="area" title="Hamburg"></path>
        <path
            d="m327.56 264.52l-.97-1.94-10.8 3.28 2.69 1.62-11.39 10.05-8.7 1.3-.58-4.21-8.76-.69-5.92 2.09 1.99 3.92 2.26-.04-.83 3.12-19.23.94-9.81 6.71 2.07 3.07 11.41-1.07 2.44 4.2-5.66 5.49 1.88 1.94-14.88.86-1.57 4.28 2.82 1.92-6.57 3.79.27 3.92-6.9 3.98-7.94-1.68-10.89 6.77 3.63 4.25-4.63 4.55 4.16 5.72-.88 3.71-8-.45-3.44 2.35-1.1 3.14 2.54 2.77-3.48 2.62 7.48 2.99 4.25 7.58-6.61.4 1.87 2.81-2.16 1.45-3.15-1.66-6.57 2.33-1.67 2.57 3.64 2.25-.34 2.85-5.39-1.97-6.43 5.71 7.77 6.25 22.75-4.68 6.63 1.21 5.41 4.33.19 5.88 3.59 2.41-.8 2.26 3.2 4.1 4.37-.14-9.4 5.88 2.38 5.51 12.41 7.1 5.15-2.11-1.88-4.67 7.38-1.05-1.21 3.64 3.59 4.32 13.1.81-1.7 2.8-3.93-.2-.76 5.53 10.42-4.3-.08-3.88 13.57-.63-3.1-1.95 1.26-2.8-2.69-3.04 3.03-1.7-1.38-3.61 5.17-3.95-3.51-1.09 2.13-2.81-3.05.31-.07-3.9-4.38-.22-1.09-10.87 2.64-.32-1.41-3.61-4-.2 1.65-3.66 9.19-2.41 2.63.51-.27 2.25 5.18-4.58 10.56 1.29 3.18 3.93 7.59-.92.99-5.68-2.16-.54-.29-5.1 12.14.75-1.79-1.12 1.22-1.71 6.5-2.31 1.46-9.42 6.77 1.96 8.89-2.05 5.72-5.15 1.74-4.85-1.88-4.29 3.63-1.4-2.81-3.4-7.39.48-.41 3.09-5.53-.89 4.99-7.24-1.37-1.95 2.71-1.4-.49-3.09 5.44-.82-.04-2.53 3.14-1.39-3.66-2.83-2.71 1.12.87-2.25-3.15.84-.03-1.68 9.06.02-3.67-2.54 1.78-2.53 8.6 1.46 4.92-2.22-5.43-2.28 2.18-4.76-4.08-1.71 3.6-.83 3.18 2.55 1.73-5.33-12.21-2.88-1.4-3.95-6.35-.6-4.72-10.12-4.17.3.99 3.06-3.78-3.04-8.6 3.41 2.29 3.58 2.62-1.46-3 3.16-12.83-3.6.75-3.39 5.65-2.1-.12-3.9-4.11-3.83 7.47-4.57-4.62-4.11-9.79.45z"
            id="DE-HE" class="area" title="Hessen"></path>
        <path
            d="m556.46 48.36l-13.68 14.12-18.48 8.86 3.57.65-1.34 1.69-2.49-.15-.33-2.36-17.73 2.89-12.96-.61-11.91 6.16.54 1.73 5.39-4.06 1.69.99-4.05 4.31-4.04.04-2.19 4.84-1.72-.44 1.89-3.7-8.67 1.93.76 2.42 3.03.34 1.26-2.73-.08 2.77 3.03-.61-2.19 5.16-9.05-4.4-5.81 1.85 0-3.85-6.02-2.34-21.55 4.53-.53 2.43 5.76.98-4.75.73-1.95-2.01-8.14 3.55-1.8 3.06 1.03 6.75 14.33 5.6-1.78 7-7.57.38.07 4.77-14.02 3.95-3.18 6.93 8.4-.43 9.89 5.32 6.1-3.19 5.66 1.25 5.66 7.95 9.87 3.77-.96 3.38 15.09 2.1.96-2.25 10.82 1.22 2.87-3.08-1.85-3.12 6.17-2.78 8.45 2.05 6.6-.78-2.32-2 5.17.33 1.93-2.24 4.22.61 5.7-2.49 2-5.06 8.88 2.35 4.74-1.36 2.27 2.57 10.29 1.53 3.63 3.99 16.87-.35.4 1.98 6.53.37-1.47 1.95 1.84.87 15.92-.9-2.41 1.94 2.77.88 10.53-6.04 4.71-.77 3.62 2.59 5.37-4.71 7.84 2.38 2.53-3.89 6.64-1.58 1.74-6.15 5.66-.76 6.47-5.49 9.07-1.25-3.7-1.2.71-3.35 2.15 3.13 4.67.93 2.86 6.23 24.47-.6-.36 4.47-10.27 8.19 11.99.24 4.67-4.12 7.26-1.3-3.04-9.83-5.53-6.3 1.69-5.76-2.7-1.15-1.22-4.96-4.39-.25 5.09-2.8-18.48-1.18-17.59-7.81 6.99 1.41 10.6-2.57 13.55.61-2.35-3.8 2.65-1.1-15.7-9.41-10.86-3.58-5.09-5.83-4.13 1.47 4.8 4.55-3.28 6.06 6.73-2.23 1.6.63-1.26 3.1 4.67-2.74-1.01-2.19 4.8.04 5.52 5.1-.34 4.12-4.46-1.56-1.81 2.17.42-4.25-4.51.02 2.4 6.17-8.54 3.2 6.77-4.25-12.88-8.11 4.76-5.6-8.38-5.19-15.7 3.64.89 2.92-3.33-.42-3.45-4.99-2.19 1.08 2.53-2.49-7.41 1.16 2.14-1.56-4.54-4.14-13.68-3.54-2.28-4.82 1.35-1.62-5.18-2.25-.42-3.22-15.87 7.11-1.77-3.87-3.95 1.94-2.27-1.82.79-.73-4.37-.3.92 1.33-5.89 2.53-2.95-1.69-1.35 3.1-9.55 4.46 3.87 2.38-7.32-1.33 1.47-1.01-1.73-2.04 5.73-5.49 11.91-.36-1.22-1.52 4.55-1.62 12.54 1.26 12.13-2.23-23.28-.38-10.27-3.15z"
            id="DE-MV" class="area" title="Mecklenburg-Vorpommern"></path>
        <path
            d="m625.37 33.18l-13.6 1.88-6.74 7.64 9.26-6.61-3.03 6.63 9.64-4.23 1.94 3.15 8.04 1.86.34 5.11-7.08-.97-2.69-4.94-2.99.77 2.32-2.31-5.39 2.04.59 2.91-3.79-2.89-8.46.4 1.14 3.24 5.43-.52-.21 1.89 3.07.51-8.97 3.81 4.67-.07 3.83 3.56-10.18.88-.97 2.99 5.3 2.34-3.45 1.41 4.17-1.1.42 2.03 5.3 1.24 4.97-1.86-1.05 2.51-2.36-.46 7.83 2.29 1.85-2.57-4.96-1.11 3.2-.13 4.54-4.88 9.56-1.31 2.48 1.69 5.26-1.41-5.47 2.5 7.07-.76-4.38 2.26 5.98 1.74-.63-2.78 3.79-2.37-7.07-4.49-4.84-.31-3.03-4.32 7.49-4.46.84-3.18-19.62-1.16-3.41-4.33 4.05-3.75z"
            id="DE-MV" class="area" title="Mecklenburg-Vorpommern"></path>
        <path d="m606.8 47.6l-4.8 3.94 8.04-2-3.24-1.94z" id="PATH_13" class="area" title=""></path>
        <path d="m603.18 39.2l-2.95 1.12-2.56 10.06 4.04-6.06-.46-3.5 3.57.34-1.64-1.96z" id="PATH_14" class="area"
            title=""></path>
        <path
            d="m265.58 93.23l-9.3 4.4-5.64 10.59 6.61 13.34-3.88 1.31 2.82-1.88-3.07-2.31-18.52-4.06-3.12 6.77 6.49-.12 0 4.23-4.85 5.09-13.55-4.99-.67-3.11 6.86-.59 1.3-3.1-4.71-6.65-4.97.04-2.19-5.21-36.79 2.96-16.16-.9-12.04 4.21-5.14 3.89 3.29 3.35-7.54-.07 1.18 1.94-3.87 11.09 2.14 1.9 16.84.48-3.32 6.9 5.08.38.92 2.59.62 2.78-4.98 2.91 2.24 1.98.37 7.64-12.67 11.45-3.21 15.96-23.34-.85-1.48 4.27 3.33 1.93-6.4.69 2.26 5.43 17.95 3.6 4.23-2.47 5.52 6.58-3.75 6.7 3.07 3.85 17.31-1.57 21.82-8.49 1.7-3.39-2.34-.78 2.66-3.39 6.04 1.49 2 4.12 16.55 2.52 3.83 4.32-4.52.46 1.98 2.2-4.13 5.86 8.9 2-.65 4.37-9.35 2.2 6.69 3.77 4.43-2.42 12.38-.42 5.6-4.6 10.18 1.8 8.82-5.79-5.62-1.88 1.84-7.94-2.05-3.63-9.87-3.21-.7-4.2 9.73.93 5.73-4.9 11.02-1.33 3.82 2.19.42 8.18 11.08.38 6.41-.96 8.41-7.49 3.24.23 3.3 1.64-3.11 2.6 1.99 3.08-11.99 9.24 8.46 3.82-2.73.61.61 3.1-4.64-1.06 2.53 4.77 10.57.68-1.72 2.28 4.2 1.63-1.24 2.85 1.96 2.8-1.76 1.43 7.78.73-.31 3.12 5.56 2.46-.75 3.12 9.46-.13-2.19 1.15 1.07 3.61-4.71 2.6 1.51 4.44-2.01 3.94 18.61.78 4.62 4.11-7.47 4.57 4.11 3.83.12 3.9-5.65 2.1-.75 3.39 12.83 3.6 3-3.16-2.62 1.46-2.29-3.58 8.6-3.41 3.78 3.04-.99-3.06 4.17-.3 2.42 3.08 8.44-4.47 8.12.62-1.37-.86 3.98-3.08 3.17.87 8.48-3.89 2.15-4.8 10.9 2.62 6.28-1.95 4.53 1.4-1.89-4.65 4.94-1.85-5.52-8.62-4.14-1.92-.06-5.19 5.98-4.05-3.26-2.85 3.25-1.39-6.99-3.74 9.73-3.24 21.45-.34-1.94-3.65 7.67-2.16 1.33-2.5-3.64-2.26 5.43-2.2-7.89-8.43 6.91-2.76-10.8-6.48.88-2.51 4.72.02-5.76-5.61 3.33-4.24-4.31 1.15-6.75-8.85-2.75.22-2.24-9.9 13.36-.01 3.77-4.17 3.76-.51 21.18 2.98 14.11-4.97.53-4.5 3.75.31 2.85-2.8-10.76-3.47-9.9 1.34-4.68-5.12-6.14-.62.96-3.38-9.87-3.77-5.66-7.95-4.72-1.22-7.04 3.16-9.89-5.32-9.77.72-18.79-5.51-11.67 2.62-9.37-5.01-5.34 3.7-5.85.04 1.43-1.71-1.97-1.68-2.87 2.29-7.39-5.88.39-3.69-16.78-4.45-3.04-5.8-16.58-12.77-14.53-1.11-6.06 3.64-10.07.61-9.59-1.11-5.77-3.75zm-12.23 52.74l-2.47-2.47 8.45.9-.34 2.27 17.86 1.56 2.45 2.21 6.46-1.54 2.9 2.21-2.78.33 3.35 1.92-2.3.61 1.54 3.09-3.6 2.61-5.23-2.16-3.65 1.49-3.39-2.48-3.2 1.49-7.99-9.71-8.06-2.33z"
            id="DE-NI" class="area" title="Basse-Saxe"></path>
        <path d="m251.77 90.26l-.84 1.31 2.11-.23-1.27-1.08z" id="PATH_16" class="area" title=""></path>
        <path d="m214.69 101.29l-1.64 1.18 2.65 1.92-1.01-3.1z" id="PATH_17" class="area" title=""></path>
        <path d="m206.1 100.66l-3.75.55 9.22.9-5.47-1.45z" id="PATH_18" class="area" title=""></path>
        <path d="m191.75 101.76l-2.99 1.57 10.52-1.2-7.53-.37z" id="PATH_19" class="area active" title=""></path>
        <path d="m181.68 103.44l-6.73.19-1.31 2.1 12.13-1.62-4.09-.67z" id="PATH_20" class="area" title=""></path>
        <path d="m168.09 105.16l-2.57.59 5.26.13-2.69-.72z" id="PATH_21" class="area" title=""></path>
        <path d="m162.19 106.01l-13.51 1.39 15.49-1.18-1.98-.21z" id="PATH_22" class="area" title=""></path>
        <path d="m142.66 108.95l-15.45 1.77 18.27-1.47-2.82-.3z" id="PATH_23" class="area" title=""></path>
        <path d="m130.75 111.29l-2.78 1.12 2.48.96.3-2.08z" id="PATH_24" class="area" title=""></path>
        <path d="m120.18 113.94l-9.93 1.58 9.01 3.12-2.15-2.05 6.82-1.43-3.75-1.22z" id="PATH_25" class="area" title="">
        </path>
        <path
            d="m264.48 196.79l-11.98.79-5.73 4.9-10.18-.64 1.15 3.91 9.87 3.21 2.05 3.63-1.84 7.94 5.62 1.88-8.82 5.79-10.18-1.8-5.6 4.6-21 1.83-2.5-2.76 9.35-2.2-.7-3.14 1.9-.41-9.45-2.82 4.13-5.86-1.98-2.2 4.52-.46-3.83-4.32-16.55-2.52-2-4.12-6.04-1.49-2.66 3.39 2.34.78-1.7 3.39-21.82 8.49-10.57-.3-12.38 2.98-9.05 7.64-8.17.55-1.95 3.45-3.19.1-.19 2.56 10.4 3.37.23 2.27-7.25 5.04-3.81-1.59-16.07 4.96-5.92-1.53 1.15 3.73-19.59-6.04-3.92 1.24 4.68 3.33-7.63-1.51-7.28 2.51 2.47 4.82-3.09 2.01 6.56 1.89-.87 2.95 6.04 1.31-2.11 4.19 9.44 6.69 1.36 8.64-.11 2.8-11.66 9.18 1.04 5.26 7.67-1.24-3.66 1.36 2.05 1.58-11.86 4.46-3.47 4.52-7.42-1.24 2.43 5.49 9.57-.38-1.12 3.8 5.14.86-.69 5.68-4.11.12.56 2.31-4.84 1.5 3.69 1.5 1.27 3.79 6.83 1.25 4.17 3.81-.05 2.8 7.97.38-8.04 4.99 3.91 3.66 8.05.65 3.38 3.62-2.65 5 4.82 4.39-.88-4.73 5.15 1.85-.72 1.98 11.89-3.62 2.6 3.35 2.54-2.01 2.42 2.59 7.76-1.52-4.27-8.97 3.87-1.26 4.7 2.98 2.97-1.24-1.29-4.5 3.5-.4-.18-1.98 9.45-3.46 7.13.28 4.55-3.85.62 1.95 9.26-1.22 3.04-6.04 21.17-3.9 2.08-1.77-1.99-2.18 7.92-1.98-2.28-5.55 4.79-1.86 4.16 1.27-1.51 3.42 10.56 2.72.03 5.35 5.94 5.72 7.6.33 2-3.39-3.6-3.96 10.89-6.77 7.94 1.68 6.9-3.98-.27-3.92 6.57-3.79-2.82-1.92 1.57-4.28 14.88-.86-1.88-1.94 5.66-5.49-3.39-5.03-10.46 1.9-2.47-2.22 4.81-4.62 5.4-2.94 19.23-.94.83-3.12-2.26.04-1.99-3.92 9.81-3 5.32 1.87.13 3.94 8.7-1.3 11.39-10.05-2.69-1.62 8.2-2.39-5.25-.18 2.01-3.94-1.9-3.31 5.1-3.73-1.07-3.61 2.19-1.15-9.46.13.75-3.12-5.56-2.46.31-3.12-7.78-.73 1.76-1.43-1.96-2.8 1.24-2.85-4.2-1.63 1.72-2.28-10.57-.68-2.53-4.77 4.64 1.06-.61-3.1 2.73-.61-8.46-3.82 4.82-4.88 4.56-.93 3.25-9.66-6.06-1.32-8.41 7.49-15.16 1.11-2.33-.53-.42-8.18-2.86-1.65z"
            id="DE-NW" class="area" title="NordRhein-Westphalie"></path>
        <path
            d="m198.81 316.68l-4.79 1.86 2.28 5.55-7.92 1.98 1.99 2.18-2.08 1.77-21.17 3.9-3.04 6.04-9.26 1.22-.62-1.95-4.55 3.85-7.13-.28-9.45 3.46.18 1.98-3.5.4 1.29 4.5-2.97 1.24-4.7-2.98-3.87 1.26 4.27 8.97-7.76 1.52-2.42-2.59-2.54 2.01-2.6-3.35-11.89 3.62.72-1.98-6.02-1.55 3.11 4.41-9.1.28-1.93 4.03-7.98 2.21 1.46 3.54-3.27 1.18-3.65 8.64 4.92 8.02 4.24.18 1.34 4.49 5.48 2.06.23 2.25 3.85-1.4 3.19 2.58 9.33.86-.89 6.4-7 4.38-.51 3.7-4.08 3.29 1.1 1.98 17.47 2.1 32.07-9.59 14.04 5.64 4.26-1.55.71 3.64 2.2.21-2.01 2.31 1.92 2.47-4.13 2.93 2.84 3.27 8.79 1.45-1.76 6.46-7.12 3.56 4.66 5.69 10.41.16 3.02 5.41 10.6 3.88 9.76-1.38 5.12 2.32 5.27-1.72 11.7 5.07 11.37 1.55 9.15-9.91 2.32-10.79 7.46-4.49-3.1-2.39 3.35-2.08.33-2.51-2.58.09 3.31-3.73-4.77-.67 1.66-1.72-3.69-6 .77-2.53-5.08-7.93 9.4-5.88-4.37.14-3.2-4.1.8-2.26-3.59-2.41-.19-5.88-6.75-5.13-28.04 4.27-7.77-6.25 6.43-5.71 5.39 1.97.34-2.85-3.64-2.25 1.67-2.57 6.57-2.33 3.15 1.66 2.16-1.45-1.87-2.81 6.61-.4-4.25-7.58-7.48-2.99 3.48-2.62-2.54-2.77 1.1-3.14 3.44-2.35 6.4 1.62 2.55-4.32-2.56-1.43-1.49-6.86-5.18.23-5.94-5.72-.03-5.35-10.56-2.72 1.51-3.42-4.16-1.27z"
            id="DE-RP" class="area" title="Rheinland-Pfalz"></path>
        <path
            d="m141.1 415.16l-7.44.32-25.09 9.01-17.98-2.1-1.25 6.29 5.83-.72 7.85 3.05 4.84 5.12-2.57 1.31 7.76 5.22 5.32 8.78 7.31 1 2-2.07-1.55-2.69 6.36-.67 8.29 2.63 1.84 5.74 3.04-3.17 7.59 2.97 12.46-2.27-5.33-7.62 7.12-3.56 1.76-6.46-8.79-1.45-2.84-3.27 4.13-2.93-1.92-2.47 2.01-2.31-2.2-.21-.71-3.64-4.26 1.55-13.58-5.38z"
            id="DE-SL" class="area" title="Saarland"></path>
        <path
            d="m489.23 159.58l1.42-1.11-9.88 2.17-1 4.78-14.11 4.97-21.18-2.98-3.76.51-3.77 4.17-13.36.01 2.24 9.9 2.75-.22 6.75 8.85 4.31-1.15-3.33 4.24 5.76 5.61-4.72-.02-.88 2.51 10.8 6.48-6.91 2.76 7.89 8.43-5.43 2.2 3.64 2.26-1.33 2.5-7.67 2.16 1.94 3.65-21.45.34-4.62 3.02-4.65-.33 1.41 2.83 5.12 1.46-3.25 1.39 3.26 2.85-5.98 4.05.06 5.19 4.14 1.92 5.52 8.62 16.86 1.91.9 1.7-4.09 1.15 4.97 3.38-.92 2.83 2.71 1.4-.47 3.68 3.16.27-1.36.85 25.3.48 5.43 1.98.41 3.09 5.85 3.38-8.68 5.91 8.11 2.24-.07 6.19 14.93-.29 7.16 5.34 9.11-1.37 8.11 3.39-.94 1.39 3.14 1.97 13.15-.75 3.11 2.81 5.55-6.89-3.59-.6 2.79-3.86-4.94-1.45 1.39-1.37-3.15-.87.97-3.05-2.72-.03 2.32-2.49-4.37-7.84 3.2-.81.16-6.97-3.57-3.11 4.13-1.63-.37-3.35 3.25-2.76 30.23-3.82 3.75-3.3 6.81 1.21 4.2-2.74 8.56 3.2 4.64-2.18 1.74 2.27 12.1-5.99-4.62-9.88 1.9-1.93-8.7.16.55-2.24-5.49-.08-.82-2.53-8.26.17-.37-2.53-4.6.5-8.59-3.76-10.17 2.11-4.48-3.69-4.17 1.07-11.78-6.59-4.47-4.81 6.1-4.14-3.63-2.28 4.81-6.96-1.82-1.15 1.48-3.35-2.29-.87 4.3-4.72-7.32-3.45-2.84 2.22-2.3-.87 1.44-1.95-3.26.53 2.88-3.63-.83-3.94 5.12-.23-.35-4.5-2.73-1.99 1.04-4.49 3.31-1.66-1.74-4.8-29.76-3.66-1.38-1.42 1.91-1.96-12.12-2.08-.43-2.26-4.21-.88z"
            id="DE-ST" class="area" title="Sachsen-Anhalt"></path>
        <path
            d="m583.6 261.4l-47.71 8.05-3.72 3.31.84 2.8-4.13 1.63 3.57 3.11-.16 6.97-3.2.81 4.37 7.84-2.32 2.49 2.72.03-.97 3.05 3.15.87-1.39 1.37 18.01 1.9 3.56 1.73.36 3.35 2.26-.52-.95 1.93 6.28.11 3.39 5.64-13.04 2.27-3.23 3.83-14.37 1.74 3.1 3.08-4.56 2.74 7.19 4.47-4.27 3.67-9.55.57.72 3.94-9.53 1.72-1.59-6.19-10.54 7.07 7.01 4.21-1 2.54-4.91.87 6.87 3.92-.61 2.84 10.89 3.28 5.64-.77.06 3.32 4.4.26-1.42 1.7 3.81 1.96-.13 3.39 3.4.22 2.76-7.33 9.78-5.51 1.74-3.86 7.5-1.45 6.82 1.63 9.37-4.61 11.24 3.36 3.87-2.66.39-4.49 12.33.61 3.99-6.95 5.92.79 3.64-4.68 6.85 3.57 4.6-2.96 1.74-5.88 22.87-.38 3.63-1.88-.24-3.07 4.48-1.53 7.87.25 14.85-6.51 8.93-.17 2.17-4.07-11.68-2.34 3.58-6.14 7.83 3.48 7.07-.92.83-2.36.06 2.63 7.02 2.15-2.65 4.92 6.94-.69-3.02 5.9 14.64 1.96 1.16-4.78 8.31-7.53 8.19-18.86-.73-5.27-4.6-3.38-.31-7.51-4.04-3-12.98-2.34-3.69-5.72-1.9 3.69-7.22-1.64-17.28 5.43-14.27-3.35-4.7 3.68 1.19 1.23-4.36-.01 2.32 2.47-4.94 5.57-3.3-1.87-14.58 2.81-16.6-.61-10.5-6.37-1.93 2.21-4.47-1.19-3.82 4.15-4.04-.91-.79-2.53-2.29.24 2.59-7.24-4.88-2.87.57-2.8-5.44-.64-6.21-4.57-4.64 2.18-5.84-2.6z"
            id="DE-SN" class="area" title="Sachsen"></path>
        <path d="m446.59 44.54l-3.96 3.04-.63 4.04 6.48-.34 1.81 3.27 14.78.04-6.02-7.94-12.46-2.11z" id="PATH_31"
            class="area" title=""></path>
        <path
            d="m244.85 5.95l-8.27 10.21-1.39 11.93 1.43.74.12-8.23 2.45-.95-1.69-.84 8.04 2.06 13.18-2.88 7.79 8.73-.43 3.03 10.23 6.36 1.48 2.36-2.19 1.32 5.85.36-1.39 4.88-5.05 2.3.08 2.08 7.75.63 5.51-4.46 3.2 3.6-11.91 5.24-19.49 1.35 5.81 2.23-6.15-.09-1.89 3.69 4.97 2.8 13.47-1.44 1.76 2.17-.21-1.93 1.39 1.49 6.82-3.34-3.7 3.99-5.1.63-2.14 5.81 3.91 3.98 5.18-.69 4.42 5.34-1.64 1.98-10.95.82 9.9 9.24 25.6 2.5 16.58 12.77 3.04 5.8 9.58 3.72 3.8.47 2.76-5.31 4.96 3.31 6.16-5.06 6.33.25.88-2.52 5.35.26.86-3.08 7.21-1.42 1.5 1.39-4.24 3.09 6.44 4.17-2.37.85 1.05 2.23-3.86.3.65 4.19 12.77 5.54-1.33 1.4 19.71 5.5 3.22-1.66 1.33-5.56 14.02-3.95-.07-4.77 7.57-.38 1.78-7-14.33-5.6-1.03-6.75 1.8-3.06 8.14-3.55 1.95 2.01 4.75-.73-5.76-.98-.73-4.7-6.91-.8-2.73-3.96 4.08-3.58 5.64.57 16.25-8.29-2.65-11.85 5.26-2.76-15.11.67-10.61 5.33-6.36.5-7.66-4.37-21.59-5.54-6.87 1.68-3.78 3.98.46 2.51-3.96 1.26 1.22-4.4 3.33-1.56-1.77-3.34 2.32-1.67-5.43-2.21-19.62 2.87-2.15-1.52 14.19-6.29.5-9.05-6.52-.3-.76 3.81-14.35 5.83-2.12 1.39 3.76-3.98 12.33-3.55.38-3.43 3.41-2.15 3.92 2.19-6.02-8.17-3.62-1.3-.13 2.54-4.76.57-3.87-3.11-14.31-2.59.8-3.37-13.52 6.63-2.01-3.99-9.55 2.95-4.38-4.07-31.28-4.61-28.97 2.96-4.75-1.87-1.01-4.92 6.73-3.69-2.67-2.12zm98.48 39.76l-.51.33 1.1 1.79-6.86-1.53-3.79 2.75-2.19-2.59 12.25-.75z"
            id="DE-SH" class="area" title="Schleswig-Holstein"></path>
        <path d="m245.19 5.53l3.89.29-3.45-.82-.44.53z" id="PATH_33" class="area" title=""></path>
        <path d="m266.42 42.84l-7.79 3.43 6.28 1.31 1.51-4.74z" id="PATH_34" class="area" title=""></path>
        <path d="m254.89 27.79l-8.97.95-1.85 2.84 12.88 1.96 2.15-3.01-4.21-2.74z" id="PATH_35" class="area" title="">
        </path>
        <path d="m255.77 41.14l-3.2.42 4.84 1.16-1.64-1.58z" id="PATH_36" class="area" title=""></path>
        <path d="m250.09 48.95l-2.02 1.81 1.56 2.33 4.21-.88-3.75-3.26z" id="PATH_37" class="area" title=""></path>
        <path d="m250.17 43.66l-.42 3.81 2.49-2.65-2.07-1.16z" id="PATH_38" class="area" title=""></path>
        <path d="m250.59 40.76l-2.1 1.96 3.49.04-1.39-2z" id="PATH_39" class="area" title=""></path>
        <path d="m241.04 31.14l-4.88 3.37 7.78 4.17-4.25-5.86 1.35-1.68z" id="PATH_40" class="area" title=""></path>
        <path
            d="m424.02 263.5l-10 1.95 1.45 4.99-21.27-2.41-.82 3.68-4.89 3.35-8.09.79-3.98 3.08 1.37.86-8.12-.62-9.83 5.02 3.69 6.49 6.35.6 1.4 3.95 12.22 3.44-1.74 4.77-3.18-2.55-3.6.83 4.08 1.71-2.18 4.76 4.06.87.04 3.09-12.19-.92-1.78 2.53 3.67 2.54-9.06-.02.03 1.68 3.15-.84-.87 2.25 2.71-1.12 3.66 2.83-3.14 1.39.04 2.53-5.44.82.49 3.09-2.71 1.4 1.37 1.95-4.99 7.24 5.53.89.41-3.09 7.39-.48 2.83 4.25-3.65.55 1.88 4.29-1.76 3.14 6.67-3.72 15.62 5.37 5.38 5.37-.87 2.26 4.89-.57 2.7 3.67 8.47 1.69.94 8.21 8.41 1.67.43-3.68 8.72.52 0-2.26-9.15-3.35-.92-2.81 12.17-3.12 4.78.27 4.39 3.64-.02-1.69 3.5 1.68 5.23-1.71 3.49 2.8-1.29 3.09 8.28 1.66 2.3-7.6-2.56-8.44 5.76-.86 1.81-2.54 6.21.54-.95 4.79 2.19 2.25 2.68-.85 3.05 4.5 19.64-3.72 3.03 2.26 3.57-.86 4.94-1.99-3.05-1.12 4.91-.87-.8-1.97 1.79-.29-7-4.49 4.07-1.14 4.2-5.08 3.16-.29-.16 4.79 2.67.84 8.2-1.99-1.79-.28 1.04-3.66 3.13 1.12.55-1.98 5.42.56 3.74-2.55-4.01-2.24.07-3.34-2.72-.01 4.56-2.74-3.1-3.08 14.37-1.74 3.23-3.83 13.03-1.99-3.38-5.92-6.28-.11.95-1.93-2.26.52-.36-3.35-3.56-1.73-13.07-.45-2.79 3.86 3.58 1.44-6 6.05-2.65-2.81-13.15.75-3.14-1.97.94-1.39-8.11-3.39-9.11 1.37-7.16-5.34-13.59.85-2.67-3.09 2.73-1.7-1.33-1.96-8.11-2.24 8.68-5.91-5.85-3.38-.41-3.09-5.43-1.98-25.3-.48 1.36-.85-3.16-.27.47-3.68-2.71-1.4.92-2.83-4.97-3.38 4.09-2-12.7-2.86z"
            id="DE-TH" class="area" title="Thuringen"></path>
    </g>
</svg>